<mxfile host="app.diagrams.net" agent="Mozilla/5.0 (Macintosh; Intel Mac OS X 10_15_7) AppleWebKit/537.36 (KHTML, like Gecko) Chrome/140.0.0.0 Safari/537.36" version="28.2.5">
  <diagram name="Page-1" id="qPe_9I-Sp7dvGkSKFWva">
    <mxGraphModel dx="1181" dy="643" grid="1" gridSize="10" guides="1" tooltips="1" connect="1" arrows="1" fold="1" page="1" pageScale="1" pageWidth="1100" pageHeight="850" math="0" shadow="0">
      <root>
        <mxCell id="0" />
        <mxCell id="1" parent="0" />
        <mxCell id="oG4Nr6X0SjhLMCY7sWfZ-1" value="broker" style="rounded=1;whiteSpace=wrap;html=1;" vertex="1" parent="1">
          <mxGeometry x="710" y="365" width="120" height="60" as="geometry" />
        </mxCell>
        <mxCell id="oG4Nr6X0SjhLMCY7sWfZ-2" value="buy/sell service" style="rounded=1;whiteSpace=wrap;html=1;" vertex="1" parent="1">
          <mxGeometry x="230" y="350" width="120" height="60" as="geometry" />
        </mxCell>
        <mxCell id="oG4Nr6X0SjhLMCY7sWfZ-3" value="user" style="text;html=1;align=center;verticalAlign=middle;resizable=0;points=[];autosize=1;strokeColor=none;fillColor=none;" vertex="1" parent="1">
          <mxGeometry x="100" y="365" width="50" height="30" as="geometry" />
        </mxCell>
        <mxCell id="oG4Nr6X0SjhLMCY7sWfZ-4" value="" style="edgeStyle=none;orthogonalLoop=1;jettySize=auto;html=1;rounded=0;entryX=0;entryY=0.5;entryDx=0;entryDy=0;exitX=1.066;exitY=0.533;exitDx=0;exitDy=0;exitPerimeter=0;" edge="1" parent="1" source="oG4Nr6X0SjhLMCY7sWfZ-3" target="oG4Nr6X0SjhLMCY7sWfZ-2">
          <mxGeometry width="100" relative="1" as="geometry">
            <mxPoint x="180" y="470" as="sourcePoint" />
            <mxPoint x="280" y="470" as="targetPoint" />
            <Array as="points" />
          </mxGeometry>
        </mxCell>
        <mxCell id="oG4Nr6X0SjhLMCY7sWfZ-5" value="order table" style="rounded=1;whiteSpace=wrap;html=1;" vertex="1" parent="1">
          <mxGeometry x="490" y="210" width="120" height="60" as="geometry" />
        </mxCell>
        <mxCell id="oG4Nr6X0SjhLMCY7sWfZ-6" value="" style="edgeStyle=none;orthogonalLoop=1;jettySize=auto;html=1;rounded=0;entryX=0;entryY=0.5;entryDx=0;entryDy=0;exitX=1;exitY=0.5;exitDx=0;exitDy=0;" edge="1" parent="1" source="oG4Nr6X0SjhLMCY7sWfZ-2" target="oG4Nr6X0SjhLMCY7sWfZ-5">
          <mxGeometry width="100" relative="1" as="geometry">
            <mxPoint x="370" y="370" as="sourcePoint" />
            <mxPoint x="470" y="370" as="targetPoint" />
            <Array as="points" />
          </mxGeometry>
        </mxCell>
        <mxCell id="oG4Nr6X0SjhLMCY7sWfZ-7" value="1. create the order in table&lt;br&gt;make the job status as PENDING" style="edgeLabel;html=1;align=center;verticalAlign=middle;resizable=0;points=[];" vertex="1" connectable="0" parent="oG4Nr6X0SjhLMCY7sWfZ-6">
          <mxGeometry x="-0.1744" y="-1" relative="1" as="geometry">
            <mxPoint x="2" y="-33" as="offset" />
          </mxGeometry>
        </mxCell>
        <mxCell id="oG4Nr6X0SjhLMCY7sWfZ-9" value="job outbox table" style="rounded=1;whiteSpace=wrap;html=1;" vertex="1" parent="1">
          <mxGeometry x="490" y="305" width="120" height="60" as="geometry" />
        </mxCell>
        <mxCell id="oG4Nr6X0SjhLMCY7sWfZ-10" value="" style="edgeStyle=none;orthogonalLoop=1;jettySize=auto;html=1;rounded=0;entryX=0;entryY=0.5;entryDx=0;entryDy=0;exitX=1;exitY=0.5;exitDx=0;exitDy=0;" edge="1" parent="1" source="oG4Nr6X0SjhLMCY7sWfZ-2" target="oG4Nr6X0SjhLMCY7sWfZ-9">
          <mxGeometry width="100" relative="1" as="geometry">
            <mxPoint x="370" y="370" as="sourcePoint" />
            <mxPoint x="470" y="370" as="targetPoint" />
            <Array as="points" />
          </mxGeometry>
        </mxCell>
        <mxCell id="oG4Nr6X0SjhLMCY7sWfZ-11" value="2. create job in outbox" style="edgeLabel;html=1;align=center;verticalAlign=middle;resizable=0;points=[];" vertex="1" connectable="0" parent="oG4Nr6X0SjhLMCY7sWfZ-10">
          <mxGeometry x="-0.3251" y="-2" relative="1" as="geometry">
            <mxPoint x="22" y="-17" as="offset" />
          </mxGeometry>
        </mxCell>
        <mxCell id="oG4Nr6X0SjhLMCY7sWfZ-12" value="executor worker" style="rounded=1;whiteSpace=wrap;html=1;" vertex="1" parent="1">
          <mxGeometry x="710" y="270" width="120" height="60" as="geometry" />
        </mxCell>
        <mxCell id="oG4Nr6X0SjhLMCY7sWfZ-13" value="" style="edgeStyle=none;orthogonalLoop=1;jettySize=auto;html=1;rounded=0;exitX=0;exitY=0.5;exitDx=0;exitDy=0;entryX=1;entryY=0.5;entryDx=0;entryDy=0;" edge="1" parent="1" source="oG4Nr6X0SjhLMCY7sWfZ-12" target="oG4Nr6X0SjhLMCY7sWfZ-9">
          <mxGeometry width="100" relative="1" as="geometry">
            <mxPoint x="620" y="410" as="sourcePoint" />
            <mxPoint x="720" y="410" as="targetPoint" />
            <Array as="points" />
          </mxGeometry>
        </mxCell>
        <mxCell id="oG4Nr6X0SjhLMCY7sWfZ-14" value="3. get job" style="edgeLabel;html=1;align=center;verticalAlign=middle;resizable=0;points=[];" vertex="1" connectable="0" parent="oG4Nr6X0SjhLMCY7sWfZ-13">
          <mxGeometry x="0.02" y="1" relative="1" as="geometry">
            <mxPoint as="offset" />
          </mxGeometry>
        </mxCell>
        <mxCell id="oG4Nr6X0SjhLMCY7sWfZ-15" value="" style="edgeStyle=none;orthogonalLoop=1;jettySize=auto;html=1;rounded=0;exitX=0.5;exitY=1;exitDx=0;exitDy=0;entryX=0.5;entryY=0;entryDx=0;entryDy=0;" edge="1" parent="1" source="oG4Nr6X0SjhLMCY7sWfZ-12" target="oG4Nr6X0SjhLMCY7sWfZ-1">
          <mxGeometry width="100" relative="1" as="geometry">
            <mxPoint x="760" y="345" as="sourcePoint" />
            <mxPoint x="860" y="345" as="targetPoint" />
            <Array as="points" />
          </mxGeometry>
        </mxCell>
        <mxCell id="oG4Nr6X0SjhLMCY7sWfZ-16" value="4. launch job" style="edgeLabel;html=1;align=center;verticalAlign=middle;resizable=0;points=[];" vertex="1" connectable="0" parent="oG4Nr6X0SjhLMCY7sWfZ-15">
          <mxGeometry x="-0.0204" relative="1" as="geometry">
            <mxPoint as="offset" />
          </mxGeometry>
        </mxCell>
        <mxCell id="oG4Nr6X0SjhLMCY7sWfZ-17" value="" style="edgeStyle=none;orthogonalLoop=1;jettySize=auto;html=1;rounded=0;exitX=0;exitY=0.5;exitDx=0;exitDy=0;entryX=1;entryY=0.5;entryDx=0;entryDy=0;" edge="1" parent="1" source="oG4Nr6X0SjhLMCY7sWfZ-12" target="oG4Nr6X0SjhLMCY7sWfZ-5">
          <mxGeometry width="100" relative="1" as="geometry">
            <mxPoint x="620" y="390" as="sourcePoint" />
            <mxPoint x="720" y="390" as="targetPoint" />
            <Array as="points" />
          </mxGeometry>
        </mxCell>
        <mxCell id="oG4Nr6X0SjhLMCY7sWfZ-18" value="5. change job status to EXECUTING" style="edgeLabel;html=1;align=center;verticalAlign=middle;resizable=0;points=[];" vertex="1" connectable="0" parent="oG4Nr6X0SjhLMCY7sWfZ-17">
          <mxGeometry x="0.3169" y="-1" relative="1" as="geometry">
            <mxPoint as="offset" />
          </mxGeometry>
        </mxCell>
        <mxCell id="oG4Nr6X0SjhLMCY7sWfZ-22" value="" style="edgeStyle=none;orthogonalLoop=1;jettySize=auto;html=1;rounded=0;exitX=0.5;exitY=0;exitDx=0;exitDy=0;entryX=1;entryY=1;entryDx=0;entryDy=0;" edge="1" parent="1" source="oG4Nr6X0SjhLMCY7sWfZ-23" target="oG4Nr6X0SjhLMCY7sWfZ-5">
          <mxGeometry width="100" relative="1" as="geometry">
            <mxPoint x="490" y="450" as="sourcePoint" />
            <mxPoint x="590" y="450" as="targetPoint" />
            <Array as="points" />
          </mxGeometry>
        </mxCell>
        <mxCell id="oG4Nr6X0SjhLMCY7sWfZ-24" value="6. get EXECUTING job" style="edgeLabel;html=1;align=center;verticalAlign=middle;resizable=0;points=[];" vertex="1" connectable="0" parent="oG4Nr6X0SjhLMCY7sWfZ-22">
          <mxGeometry x="-0.257" y="-2" relative="1" as="geometry">
            <mxPoint as="offset" />
          </mxGeometry>
        </mxCell>
        <mxCell id="oG4Nr6X0SjhLMCY7sWfZ-30" value="8. change status to SUCCESS/TIMEOUT" style="edgeLabel;html=1;align=center;verticalAlign=middle;resizable=0;points=[];" vertex="1" connectable="0" parent="oG4Nr6X0SjhLMCY7sWfZ-22">
          <mxGeometry x="-0.569" y="-2" relative="1" as="geometry">
            <mxPoint as="offset" />
          </mxGeometry>
        </mxCell>
        <mxCell id="oG4Nr6X0SjhLMCY7sWfZ-23" value="message retriever worker" style="rounded=1;whiteSpace=wrap;html=1;" vertex="1" parent="1">
          <mxGeometry x="590" y="460" width="120" height="60" as="geometry" />
        </mxCell>
        <mxCell id="oG4Nr6X0SjhLMCY7sWfZ-25" value="" style="edgeStyle=none;orthogonalLoop=1;jettySize=auto;html=1;rounded=0;entryX=0.5;entryY=1;entryDx=0;entryDy=0;exitX=0.5;exitY=0;exitDx=0;exitDy=0;" edge="1" parent="1" source="oG4Nr6X0SjhLMCY7sWfZ-23" target="oG4Nr6X0SjhLMCY7sWfZ-1">
          <mxGeometry width="100" relative="1" as="geometry">
            <mxPoint x="760" y="520" as="sourcePoint" />
            <mxPoint x="860" y="520" as="targetPoint" />
            <Array as="points" />
          </mxGeometry>
        </mxCell>
        <mxCell id="oG4Nr6X0SjhLMCY7sWfZ-26" value="7. get result" style="edgeLabel;html=1;align=center;verticalAlign=middle;resizable=0;points=[];" vertex="1" connectable="0" parent="oG4Nr6X0SjhLMCY7sWfZ-25">
          <mxGeometry x="-0.0372" y="-1" relative="1" as="geometry">
            <mxPoint as="offset" />
          </mxGeometry>
        </mxCell>
        <mxCell id="oG4Nr6X0SjhLMCY7sWfZ-27" value="" style="edgeStyle=none;orthogonalLoop=1;jettySize=auto;html=1;rounded=0;exitX=0;exitY=0.5;exitDx=0;exitDy=0;entryX=1;entryY=0.5;entryDx=0;entryDy=0;" edge="1" parent="1" source="oG4Nr6X0SjhLMCY7sWfZ-23" target="oG4Nr6X0SjhLMCY7sWfZ-2">
          <mxGeometry width="100" relative="1" as="geometry">
            <mxPoint x="340" y="460" as="sourcePoint" />
            <mxPoint x="440" y="460" as="targetPoint" />
            <Array as="points" />
          </mxGeometry>
        </mxCell>
        <mxCell id="oG4Nr6X0SjhLMCY7sWfZ-28" value="9. return to user" style="edgeLabel;html=1;align=center;verticalAlign=middle;resizable=0;points=[];" vertex="1" connectable="0" parent="oG4Nr6X0SjhLMCY7sWfZ-27">
          <mxGeometry x="-0.2714" y="-1" relative="1" as="geometry">
            <mxPoint as="offset" />
          </mxGeometry>
        </mxCell>
      </root>
    </mxGraphModel>
  </diagram>
</mxfile>
